<mxfile host="app.diagrams.net" modified="2023-08-23T23:54:17.412Z" agent="Mozilla/5.0 (Windows NT 10.0; Win64; x64; rv:109.0) Gecko/20100101 Firefox/116.0" etag="uxG9-m0h_JYiOeAS-g_h" version="21.6.9" type="github">
  <diagram name="Page-1" id="3v3_eF956rP9R1qmj_aP">
    <mxGraphModel dx="1195" dy="652" grid="1" gridSize="10" guides="1" tooltips="1" connect="1" arrows="1" fold="1" page="1" pageScale="1" pageWidth="850" pageHeight="1100" math="0" shadow="0">
      <root>
        <mxCell id="0" />
        <mxCell id="1" parent="0" />
        <mxCell id="5JplayVHaoEpiO4tG7-x-13" style="edgeStyle=orthogonalEdgeStyle;rounded=0;orthogonalLoop=1;jettySize=auto;html=1;exitX=1;exitY=0.5;exitDx=0;exitDy=0;entryX=0;entryY=0.5;entryDx=0;entryDy=0;" edge="1" parent="1" source="5JplayVHaoEpiO4tG7-x-1" target="5JplayVHaoEpiO4tG7-x-10">
          <mxGeometry relative="1" as="geometry" />
        </mxCell>
        <mxCell id="5JplayVHaoEpiO4tG7-x-17" value="" style="edgeStyle=orthogonalEdgeStyle;rounded=0;orthogonalLoop=1;jettySize=auto;html=1;" edge="1" parent="1" source="5JplayVHaoEpiO4tG7-x-1" target="5JplayVHaoEpiO4tG7-x-16">
          <mxGeometry relative="1" as="geometry" />
        </mxCell>
        <mxCell id="5JplayVHaoEpiO4tG7-x-1" value="Tree" style="rhombus;whiteSpace=wrap;html=1;" vertex="1" parent="1">
          <mxGeometry x="40" y="280" width="160" height="160" as="geometry" />
        </mxCell>
        <mxCell id="5JplayVHaoEpiO4tG7-x-33" style="edgeStyle=orthogonalEdgeStyle;rounded=0;orthogonalLoop=1;jettySize=auto;html=1;exitX=1;exitY=0;exitDx=0;exitDy=0;entryX=1;entryY=1;entryDx=0;entryDy=0;" edge="1" parent="1" source="5JplayVHaoEpiO4tG7-x-5" target="5JplayVHaoEpiO4tG7-x-6">
          <mxGeometry relative="1" as="geometry" />
        </mxCell>
        <mxCell id="5JplayVHaoEpiO4tG7-x-43" value="Breaking" style="edgeLabel;html=1;align=center;verticalAlign=middle;resizable=0;points=[];rotation=-90;" vertex="1" connectable="0" parent="5JplayVHaoEpiO4tG7-x-33">
          <mxGeometry x="-0.0639" relative="1" as="geometry">
            <mxPoint x="-10" y="-4" as="offset" />
          </mxGeometry>
        </mxCell>
        <mxCell id="5JplayVHaoEpiO4tG7-x-47" style="edgeStyle=orthogonalEdgeStyle;rounded=0;orthogonalLoop=1;jettySize=auto;html=1;exitX=1;exitY=0.5;exitDx=0;exitDy=0;entryX=0;entryY=0.5;entryDx=0;entryDy=0;" edge="1" parent="1" source="5JplayVHaoEpiO4tG7-x-5" target="5JplayVHaoEpiO4tG7-x-46">
          <mxGeometry relative="1" as="geometry" />
        </mxCell>
        <mxCell id="5JplayVHaoEpiO4tG7-x-5" value="Grass Block (at spawn)" style="rhombus;whiteSpace=wrap;html=1;" vertex="1" parent="1">
          <mxGeometry x="40" y="840" width="160" height="160" as="geometry" />
        </mxCell>
        <mxCell id="5JplayVHaoEpiO4tG7-x-32" style="edgeStyle=orthogonalEdgeStyle;rounded=0;orthogonalLoop=1;jettySize=auto;html=1;exitX=0;exitY=1;exitDx=0;exitDy=0;entryX=0;entryY=0;entryDx=0;entryDy=0;" edge="1" parent="1" source="5JplayVHaoEpiO4tG7-x-6" target="5JplayVHaoEpiO4tG7-x-5">
          <mxGeometry relative="1" as="geometry" />
        </mxCell>
        <mxCell id="5JplayVHaoEpiO4tG7-x-45" value="&lt;div&gt;Adjacent to Grass Block&lt;/div&gt;" style="edgeLabel;html=1;align=center;verticalAlign=middle;resizable=0;points=[];rotation=-90;" vertex="1" connectable="0" parent="5JplayVHaoEpiO4tG7-x-32">
          <mxGeometry x="-0.1722" y="2" relative="1" as="geometry">
            <mxPoint x="-12" y="10" as="offset" />
          </mxGeometry>
        </mxCell>
        <mxCell id="5JplayVHaoEpiO4tG7-x-6" value="&lt;div&gt;Dirt&lt;br&gt;&lt;/div&gt;" style="rhombus;whiteSpace=wrap;html=1;" vertex="1" parent="1">
          <mxGeometry x="40" y="640" width="160" height="160" as="geometry" />
        </mxCell>
        <mxCell id="5JplayVHaoEpiO4tG7-x-27" style="edgeStyle=orthogonalEdgeStyle;rounded=0;orthogonalLoop=1;jettySize=auto;html=1;exitX=0.5;exitY=1;exitDx=0;exitDy=0;entryX=1;entryY=0.25;entryDx=0;entryDy=0;" edge="1" parent="1" source="5JplayVHaoEpiO4tG7-x-10" target="5JplayVHaoEpiO4tG7-x-14">
          <mxGeometry relative="1" as="geometry" />
        </mxCell>
        <mxCell id="5JplayVHaoEpiO4tG7-x-10" value="Leaves" style="rounded=0;whiteSpace=wrap;html=1;" vertex="1" parent="1">
          <mxGeometry x="240" y="320" width="120" height="80" as="geometry" />
        </mxCell>
        <mxCell id="5JplayVHaoEpiO4tG7-x-15" style="edgeStyle=orthogonalEdgeStyle;rounded=0;orthogonalLoop=1;jettySize=auto;html=1;entryX=0.5;entryY=1;entryDx=0;entryDy=0;" edge="1" parent="1" source="5JplayVHaoEpiO4tG7-x-14" target="5JplayVHaoEpiO4tG7-x-1">
          <mxGeometry relative="1" as="geometry" />
        </mxCell>
        <mxCell id="5JplayVHaoEpiO4tG7-x-42" style="edgeStyle=orthogonalEdgeStyle;rounded=0;orthogonalLoop=1;jettySize=auto;html=1;exitX=1;exitY=0.75;exitDx=0;exitDy=0;" edge="1" parent="1">
          <mxGeometry relative="1" as="geometry">
            <mxPoint x="180" y="580" as="sourcePoint" />
            <mxPoint x="460" y="240.0000000000001" as="targetPoint" />
          </mxGeometry>
        </mxCell>
        <mxCell id="5JplayVHaoEpiO4tG7-x-14" value="&lt;div&gt;Oak Sapling&lt;/div&gt;" style="rounded=0;whiteSpace=wrap;html=1;" vertex="1" parent="1">
          <mxGeometry x="40" y="520" width="160" height="80" as="geometry" />
        </mxCell>
        <mxCell id="5JplayVHaoEpiO4tG7-x-21" value="" style="edgeStyle=orthogonalEdgeStyle;rounded=0;orthogonalLoop=1;jettySize=auto;html=1;" edge="1" parent="1" source="5JplayVHaoEpiO4tG7-x-16" target="5JplayVHaoEpiO4tG7-x-18">
          <mxGeometry relative="1" as="geometry" />
        </mxCell>
        <mxCell id="5JplayVHaoEpiO4tG7-x-16" value="Oak Log" style="rounded=0;whiteSpace=wrap;html=1;" vertex="1" parent="1">
          <mxGeometry x="40" y="160" width="160" height="80" as="geometry" />
        </mxCell>
        <mxCell id="5JplayVHaoEpiO4tG7-x-23" value="" style="edgeStyle=orthogonalEdgeStyle;rounded=0;orthogonalLoop=1;jettySize=auto;html=1;" edge="1" parent="1" source="5JplayVHaoEpiO4tG7-x-18" target="5JplayVHaoEpiO4tG7-x-22">
          <mxGeometry relative="1" as="geometry" />
        </mxCell>
        <mxCell id="5JplayVHaoEpiO4tG7-x-18" value="Oak Planks" style="rounded=0;whiteSpace=wrap;html=1;" vertex="1" parent="1">
          <mxGeometry x="60" y="40" width="120" height="80" as="geometry" />
        </mxCell>
        <mxCell id="5JplayVHaoEpiO4tG7-x-26" style="edgeStyle=orthogonalEdgeStyle;rounded=0;orthogonalLoop=1;jettySize=auto;html=1;exitX=0.5;exitY=1;exitDx=0;exitDy=0;entryX=0.5;entryY=0;entryDx=0;entryDy=0;" edge="1" parent="1" source="5JplayVHaoEpiO4tG7-x-22" target="5JplayVHaoEpiO4tG7-x-25">
          <mxGeometry relative="1" as="geometry" />
        </mxCell>
        <mxCell id="5JplayVHaoEpiO4tG7-x-60" style="edgeStyle=orthogonalEdgeStyle;rounded=0;orthogonalLoop=1;jettySize=auto;html=1;exitX=1;exitY=0.5;exitDx=0;exitDy=0;entryX=0;entryY=0.5;entryDx=0;entryDy=0;" edge="1" parent="1" source="5JplayVHaoEpiO4tG7-x-22" target="5JplayVHaoEpiO4tG7-x-59">
          <mxGeometry relative="1" as="geometry" />
        </mxCell>
        <mxCell id="5JplayVHaoEpiO4tG7-x-22" value="Oak Slab" style="rounded=0;whiteSpace=wrap;html=1;" vertex="1" parent="1">
          <mxGeometry x="240" y="40" width="120" height="80" as="geometry" />
        </mxCell>
        <mxCell id="5JplayVHaoEpiO4tG7-x-48" style="edgeStyle=orthogonalEdgeStyle;rounded=0;orthogonalLoop=1;jettySize=auto;html=1;exitX=1;exitY=0.5;exitDx=0;exitDy=0;entryX=0;entryY=0.5;entryDx=0;entryDy=0;" edge="1" parent="1" source="5JplayVHaoEpiO4tG7-x-25" target="5JplayVHaoEpiO4tG7-x-41">
          <mxGeometry relative="1" as="geometry" />
        </mxCell>
        <mxCell id="5JplayVHaoEpiO4tG7-x-25" value="Composter" style="rounded=0;whiteSpace=wrap;html=1;" vertex="1" parent="1">
          <mxGeometry x="240" y="160" width="120" height="80" as="geometry" />
        </mxCell>
        <mxCell id="5JplayVHaoEpiO4tG7-x-92" style="edgeStyle=orthogonalEdgeStyle;rounded=0;orthogonalLoop=1;jettySize=auto;html=1;exitX=0.625;exitY=1;exitDx=0;exitDy=0;entryX=0.469;entryY=-0.015;entryDx=0;entryDy=0;entryPerimeter=0;" edge="1" parent="1" source="5JplayVHaoEpiO4tG7-x-41" target="5JplayVHaoEpiO4tG7-x-46">
          <mxGeometry relative="1" as="geometry">
            <Array as="points">
              <mxPoint x="500" y="600" />
              <mxPoint x="315" y="600" />
            </Array>
          </mxGeometry>
        </mxCell>
        <mxCell id="5JplayVHaoEpiO4tG7-x-41" value="Compost to Bonemeal" style="shape=hexagon;perimeter=hexagonPerimeter2;whiteSpace=wrap;html=1;fixedSize=1;" vertex="1" parent="1">
          <mxGeometry x="400" y="160" width="160" height="80" as="geometry" />
        </mxCell>
        <mxCell id="5JplayVHaoEpiO4tG7-x-51" style="edgeStyle=orthogonalEdgeStyle;rounded=0;orthogonalLoop=1;jettySize=auto;html=1;exitX=0.5;exitY=1;exitDx=0;exitDy=0;entryX=0.5;entryY=0;entryDx=0;entryDy=0;" edge="1" parent="1" source="5JplayVHaoEpiO4tG7-x-46" target="5JplayVHaoEpiO4tG7-x-50">
          <mxGeometry relative="1" as="geometry" />
        </mxCell>
        <mxCell id="5JplayVHaoEpiO4tG7-x-46" value="Grow (RMB)" style="shape=hexagon;perimeter=hexagonPerimeter2;whiteSpace=wrap;html=1;fixedSize=1;" vertex="1" parent="1">
          <mxGeometry x="240" y="880" width="160" height="80" as="geometry" />
        </mxCell>
        <mxCell id="5JplayVHaoEpiO4tG7-x-53" style="edgeStyle=orthogonalEdgeStyle;rounded=0;orthogonalLoop=1;jettySize=auto;html=1;exitX=1;exitY=0.5;exitDx=0;exitDy=0;entryX=0;entryY=0.5;entryDx=0;entryDy=0;" edge="1" parent="1" source="5JplayVHaoEpiO4tG7-x-50" target="5JplayVHaoEpiO4tG7-x-52">
          <mxGeometry relative="1" as="geometry" />
        </mxCell>
        <mxCell id="5JplayVHaoEpiO4tG7-x-50" value="Grass" style="rounded=0;whiteSpace=wrap;html=1;" vertex="1" parent="1">
          <mxGeometry x="240" y="1000" width="160" height="80" as="geometry" />
        </mxCell>
        <mxCell id="5JplayVHaoEpiO4tG7-x-58" style="edgeStyle=orthogonalEdgeStyle;rounded=0;orthogonalLoop=1;jettySize=auto;html=1;exitX=1;exitY=0.5;exitDx=0;exitDy=0;entryX=0;entryY=0.5;entryDx=0;entryDy=0;" edge="1" parent="1" source="5JplayVHaoEpiO4tG7-x-52" target="5JplayVHaoEpiO4tG7-x-57">
          <mxGeometry relative="1" as="geometry" />
        </mxCell>
        <mxCell id="5JplayVHaoEpiO4tG7-x-52" value="&lt;div&gt;Break (LMB)&lt;/div&gt;" style="shape=hexagon;perimeter=hexagonPerimeter2;whiteSpace=wrap;html=1;fixedSize=1;" vertex="1" parent="1">
          <mxGeometry x="440" y="1000" width="160" height="80" as="geometry" />
        </mxCell>
        <mxCell id="5JplayVHaoEpiO4tG7-x-67" value="" style="edgeStyle=orthogonalEdgeStyle;rounded=0;orthogonalLoop=1;jettySize=auto;html=1;" edge="1" parent="1" source="5JplayVHaoEpiO4tG7-x-57" target="5JplayVHaoEpiO4tG7-x-66">
          <mxGeometry relative="1" as="geometry" />
        </mxCell>
        <mxCell id="5JplayVHaoEpiO4tG7-x-57" value="Wheat Seeds" style="rounded=0;whiteSpace=wrap;html=1;" vertex="1" parent="1">
          <mxGeometry x="640" y="1000" width="160" height="80" as="geometry" />
        </mxCell>
        <mxCell id="5JplayVHaoEpiO4tG7-x-64" style="edgeStyle=orthogonalEdgeStyle;rounded=0;orthogonalLoop=1;jettySize=auto;html=1;exitX=1;exitY=0.5;exitDx=0;exitDy=0;" edge="1" parent="1" source="5JplayVHaoEpiO4tG7-x-59" target="5JplayVHaoEpiO4tG7-x-62">
          <mxGeometry relative="1" as="geometry" />
        </mxCell>
        <mxCell id="5JplayVHaoEpiO4tG7-x-65" style="edgeStyle=orthogonalEdgeStyle;rounded=0;orthogonalLoop=1;jettySize=auto;html=1;exitX=1;exitY=0.5;exitDx=0;exitDy=0;entryX=0.5;entryY=0;entryDx=0;entryDy=0;" edge="1" parent="1" source="5JplayVHaoEpiO4tG7-x-59" target="5JplayVHaoEpiO4tG7-x-63">
          <mxGeometry relative="1" as="geometry" />
        </mxCell>
        <mxCell id="5JplayVHaoEpiO4tG7-x-80" style="edgeStyle=orthogonalEdgeStyle;rounded=0;orthogonalLoop=1;jettySize=auto;html=1;exitX=1;exitY=0.5;exitDx=0;exitDy=0;" edge="1" parent="1" source="5JplayVHaoEpiO4tG7-x-59" target="5JplayVHaoEpiO4tG7-x-77">
          <mxGeometry relative="1" as="geometry" />
        </mxCell>
        <mxCell id="5JplayVHaoEpiO4tG7-x-59" value="Mob Spawning Platform" style="shape=parallelogram;perimeter=parallelogramPerimeter;whiteSpace=wrap;html=1;fixedSize=1;" vertex="1" parent="1">
          <mxGeometry x="400" y="40" width="160" height="80" as="geometry" />
        </mxCell>
        <mxCell id="5JplayVHaoEpiO4tG7-x-70" value="" style="edgeStyle=orthogonalEdgeStyle;rounded=0;orthogonalLoop=1;jettySize=auto;html=1;" edge="1" parent="1" source="5JplayVHaoEpiO4tG7-x-62" target="5JplayVHaoEpiO4tG7-x-68">
          <mxGeometry relative="1" as="geometry" />
        </mxCell>
        <mxCell id="5JplayVHaoEpiO4tG7-x-62" value="Zombie" style="shape=trapezoid;perimeter=trapezoidPerimeter;whiteSpace=wrap;html=1;fixedSize=1;" vertex="1" parent="1">
          <mxGeometry x="600" y="160" width="120" height="80" as="geometry" />
        </mxCell>
        <mxCell id="5JplayVHaoEpiO4tG7-x-63" value="&lt;div&gt;Skeleton&lt;/div&gt;" style="shape=trapezoid;perimeter=trapezoidPerimeter;whiteSpace=wrap;html=1;fixedSize=1;" vertex="1" parent="1">
          <mxGeometry x="760" y="160" width="120" height="80" as="geometry" />
        </mxCell>
        <mxCell id="5JplayVHaoEpiO4tG7-x-66" value="Placed Wheat Seeds" style="rounded=0;whiteSpace=wrap;html=1;" vertex="1" parent="1">
          <mxGeometry x="840" y="1000" width="160" height="80" as="geometry" />
        </mxCell>
        <mxCell id="5JplayVHaoEpiO4tG7-x-86" style="edgeStyle=orthogonalEdgeStyle;rounded=0;orthogonalLoop=1;jettySize=auto;html=1;exitX=0.5;exitY=1;exitDx=0;exitDy=0;" edge="1" parent="1" source="5JplayVHaoEpiO4tG7-x-68">
          <mxGeometry relative="1" as="geometry">
            <mxPoint x="640" y="410" as="targetPoint" />
            <Array as="points">
              <mxPoint x="660" y="410" />
              <mxPoint x="640" y="410" />
            </Array>
          </mxGeometry>
        </mxCell>
        <mxCell id="5JplayVHaoEpiO4tG7-x-88" style="edgeStyle=orthogonalEdgeStyle;rounded=0;orthogonalLoop=1;jettySize=auto;html=1;exitX=0.5;exitY=1;exitDx=0;exitDy=0;entryX=1;entryY=0.5;entryDx=0;entryDy=0;" edge="1" parent="1" source="5JplayVHaoEpiO4tG7-x-68" target="5JplayVHaoEpiO4tG7-x-87">
          <mxGeometry relative="1" as="geometry" />
        </mxCell>
        <mxCell id="5JplayVHaoEpiO4tG7-x-90" style="edgeStyle=orthogonalEdgeStyle;rounded=0;orthogonalLoop=1;jettySize=auto;html=1;exitX=0.5;exitY=1;exitDx=0;exitDy=0;entryX=1;entryY=0.5;entryDx=0;entryDy=0;" edge="1" parent="1" source="5JplayVHaoEpiO4tG7-x-68" target="5JplayVHaoEpiO4tG7-x-89">
          <mxGeometry relative="1" as="geometry" />
        </mxCell>
        <mxCell id="5JplayVHaoEpiO4tG7-x-68" value="Kill" style="shape=hexagon;perimeter=hexagonPerimeter2;whiteSpace=wrap;html=1;fixedSize=1;" vertex="1" parent="1">
          <mxGeometry x="600" y="280" width="120" height="80" as="geometry" />
        </mxCell>
        <mxCell id="5JplayVHaoEpiO4tG7-x-73" value="" style="edgeStyle=orthogonalEdgeStyle;rounded=0;orthogonalLoop=1;jettySize=auto;html=1;" edge="1" parent="1" target="5JplayVHaoEpiO4tG7-x-74">
          <mxGeometry relative="1" as="geometry">
            <mxPoint x="820" y="240" as="sourcePoint" />
          </mxGeometry>
        </mxCell>
        <mxCell id="5JplayVHaoEpiO4tG7-x-74" value="Kill" style="shape=hexagon;perimeter=hexagonPerimeter2;whiteSpace=wrap;html=1;fixedSize=1;" vertex="1" parent="1">
          <mxGeometry x="760" y="280" width="120" height="80" as="geometry" />
        </mxCell>
        <mxCell id="5JplayVHaoEpiO4tG7-x-77" value="&lt;div&gt;Zombie&amp;nbsp;&lt;/div&gt;&lt;div&gt;Villager&lt;/div&gt;" style="shape=trapezoid;perimeter=trapezoidPerimeter;whiteSpace=wrap;html=1;fixedSize=1;" vertex="1" parent="1">
          <mxGeometry x="920" y="160" width="120" height="80" as="geometry" />
        </mxCell>
        <mxCell id="5JplayVHaoEpiO4tG7-x-78" value="" style="edgeStyle=orthogonalEdgeStyle;rounded=0;orthogonalLoop=1;jettySize=auto;html=1;" edge="1" parent="1" target="5JplayVHaoEpiO4tG7-x-79">
          <mxGeometry relative="1" as="geometry">
            <mxPoint x="980" y="240" as="sourcePoint" />
          </mxGeometry>
        </mxCell>
        <mxCell id="5JplayVHaoEpiO4tG7-x-79" value="Kill" style="shape=hexagon;perimeter=hexagonPerimeter2;whiteSpace=wrap;html=1;fixedSize=1;" vertex="1" parent="1">
          <mxGeometry x="920" y="280" width="120" height="80" as="geometry" />
        </mxCell>
        <mxCell id="5JplayVHaoEpiO4tG7-x-91" style="edgeStyle=orthogonalEdgeStyle;rounded=0;orthogonalLoop=1;jettySize=auto;html=1;exitX=1;exitY=0.5;exitDx=0;exitDy=0;jumpStyle=arc;" edge="1" parent="1" source="5JplayVHaoEpiO4tG7-x-84">
          <mxGeometry relative="1" as="geometry">
            <mxPoint x="680" y="800" as="targetPoint" />
          </mxGeometry>
        </mxCell>
        <mxCell id="5JplayVHaoEpiO4tG7-x-84" value="Iron Ingot" style="rounded=0;whiteSpace=wrap;html=1;" vertex="1" parent="1">
          <mxGeometry x="520" y="400" width="120" height="80" as="geometry" />
        </mxCell>
        <mxCell id="5JplayVHaoEpiO4tG7-x-87" value="Potato" style="rounded=0;whiteSpace=wrap;html=1;" vertex="1" parent="1">
          <mxGeometry x="520" y="520" width="120" height="80" as="geometry" />
        </mxCell>
        <mxCell id="5JplayVHaoEpiO4tG7-x-89" value="Carrot" style="rounded=0;whiteSpace=wrap;html=1;" vertex="1" parent="1">
          <mxGeometry x="520" y="650" width="120" height="80" as="geometry" />
        </mxCell>
      </root>
    </mxGraphModel>
  </diagram>
</mxfile>
